# This file uses centimeters as units for non-parametric coordinates.

mtllib loader.mtl
g default
v 1.613551 0.017792 -1.861455
v 1.613551 0.017792 -1.741395
v -0.102672 0.034617 -1.723884
v -0.102672 0.034617 -1.878966
v -0.075570 0.096455 -1.741395
v -0.075570 0.096455 -1.861455
v 0.124667 0.135547 -1.741395
v 0.124667 0.135547 -1.861455
v 0.351613 0.149314 -1.741395
v 0.351613 0.149314 -1.861455
v 0.748768 0.135547 -1.741395
v 0.748768 0.135547 -1.861455
v 1.010858 0.098836 -1.741395
v 1.010858 0.098836 -1.861455
v 1.194030 0.062491 -1.741395
v 1.194030 0.062491 -1.861455
v 1.336146 0.048850 -1.741395
v 1.336146 0.048850 -1.861455
v -0.192852 -0.005641 -1.712846
v -0.192852 -0.005641 -1.890004
v -0.075570 -0.005641 -1.890004
v 0.124667 -0.005641 -1.890004
v 0.351613 -0.005641 -1.890004
v 0.748768 -0.005641 -1.890004
v 1.010858 -0.005641 -1.890004
v 1.194030 -0.005641 -1.890004
v 1.336146 -0.005641 -1.890004
v 1.685573 -0.005641 -1.890004
v 1.685573 -0.005636 -1.712846
v 1.336146 -0.005641 -1.712846
v 1.194030 -0.005641 -1.712846
v 1.010858 -0.005641 -1.712846
v 0.748768 -0.005641 -1.712846
v 0.351613 -0.005641 -1.712846
v 0.124667 -0.005641 -1.712846
v -0.075570 -0.005641 -1.712846
v 0.692917 0.494275 -1.861455
v 0.692917 0.494275 -1.741395
v 0.356557 0.505201 -1.861455
v 0.356557 0.505201 -1.741395
v 0.608951 0.966983 -1.834733
v 0.608951 0.966983 -1.768117
v 0.353980 0.977909 -1.834733
v 0.353980 0.977909 -1.768117
v 1.468953 0.031602 -1.741395
v 1.466125 -0.005641 -1.712846
v 1.466125 -0.005641 -1.890004
v 1.468953 0.031602 -1.861455
v 1.485497 0.218383 -1.861455
v 1.608989 0.204572 -1.861455
v 1.485497 0.218383 -1.741395
v 1.608989 0.204572 -1.741395
v 1.372076 0.235630 -1.861455
v 1.372076 0.235630 -1.741395
v 1.519204 0.427976 -1.834733
v 1.603188 0.424146 -1.834733
v 1.519204 0.427976 -1.768117
v 1.603188 0.424146 -1.768117
v 1.409244 0.411004 -1.834733
v 1.409244 0.411004 -1.768117
v 1.603188 -0.435428 -1.834733
v 1.519204 -0.439258 -1.834733
v 1.519204 -0.439258 -1.768117
v 1.603188 -0.435428 -1.768117
v -0.075570 -0.107737 -1.741395
v -0.075570 -0.107737 -1.861455
v -0.102672 -0.045898 -1.878966
v -0.102672 -0.045898 -1.723884
v 0.124667 -0.146829 -1.741395
v 0.124667 -0.146829 -1.861455
v 0.351613 -0.160596 -1.741395
v 0.351613 -0.160596 -1.861455
v 0.608951 -0.978264 -1.768117
v 0.608951 -0.978264 -1.834733
v 0.353980 -0.989190 -1.834733
v 0.353980 -0.989190 -1.768117
v 1.010858 -0.110118 -1.741395
v 1.010858 -0.110118 -1.861455
v 0.748768 -0.146829 -1.861455
v 0.748768 -0.146829 -1.741395
v 1.194030 -0.073772 -1.741395
v 1.194030 -0.073772 -1.861455
v 1.336146 -0.060131 -1.741395
v 1.336146 -0.060131 -1.861455
v 1.468953 -0.042884 -1.861455
v 1.613551 -0.029074 -1.861455
v 1.613551 -0.029074 -1.741395
v 1.468953 -0.042884 -1.741395
v 0.692917 -0.505557 -1.861455
v 0.692917 -0.505557 -1.741395
v 0.356557 -0.516483 -1.861455
v 0.356557 -0.516483 -1.741395
v 1.409244 -0.422285 -1.834733
v 1.409244 -0.422285 -1.768117
v 1.485497 -0.229664 -1.861455
v 1.608989 -0.215854 -1.861455
v 1.608989 -0.215854 -1.741395
v 1.485497 -0.229664 -1.741395
v 1.372076 -0.246912 -1.861455
v 1.372076 -0.246912 -1.741395
vt 0.625000 0.000000
vt 0.625000 0.250000
vt 0.625000 0.500000
vt 0.625000 0.750000
vt 0.625000 1.000000
vt 0.875000 0.000000
vt 0.875000 0.250000
vt 0.625000 0.486058
vt 0.861058 0.250000
vt 0.625000 0.763942
vt 0.861058 0.000000
vt 0.625000 0.457741
vt 0.832741 0.250000
vt 0.625000 0.792259
vt 0.832741 0.000000
vt 0.625000 0.427537
vt 0.802537 0.250000
vt 0.625000 0.822463
vt 0.802537 0.000000
vt 0.625000 0.374680
vt 0.749680 0.250000
vt 0.625000 0.875320
vt 0.749680 0.000000
vt 0.625000 0.339798
vt 0.714798 0.250000
vt 0.625000 0.910202
vt 0.714798 0.000000
vt 0.625000 0.315420
vt 0.690420 0.250000
vt 0.625000 0.934580
vt 0.690420 0.000000
vt 0.625000 0.296505
vt 0.671505 0.250000
vt 0.625000 0.953495
vt 0.671505 0.000000
vt 0.496612 0.500000
vt 0.496612 0.750000
vt 0.496612 0.763942
vt 0.496612 0.792259
vt 0.496612 0.822463
vt 0.496612 0.875320
vt 0.496612 0.910202
vt 0.496612 0.934580
vt 0.496612 0.953495
vt 0.496612 0.000000
vt 0.496612 1.000000
vt 0.496612 0.250000
vt 0.496612 0.296505
vt 0.496612 0.315420
vt 0.496612 0.339798
vt 0.496612 0.374680
vt 0.496612 0.427537
vt 0.496612 0.457741
vt 0.496612 0.486058
vt 0.749680 0.250000
vt 0.749680 0.000000
vt 0.802537 0.000000
vt 0.802537 0.250000
vt 0.749680 0.250000
vt 0.749680 0.000000
vt 0.802537 0.000000
vt 0.802537 0.250000
vt 0.625000 0.264487
vt 0.639487 0.250000
vt 0.496612 0.264487
vt 0.496612 0.985513
vt 0.625000 0.985513
vt 0.639487 0.000000
vt 0.625000 0.000000
vt 0.639487 0.000000
vt 0.639487 0.250000
vt 0.625000 0.250000
vt 0.671505 0.000000
vt 0.671505 0.250000
vt 0.625000 0.000000
vt 0.639487 0.000000
vt 0.639487 0.250000
vt 0.625000 0.250000
vt 0.671505 0.000000
vt 0.671505 0.250000
vt 0.625000 0.000000
vt 0.639487 0.000000
vt 0.639487 0.250000
vt 0.625000 0.250000
vt 0.861058 0.250000
vt 0.861058 0.000000
vt 0.875000 0.000000
vt 0.875000 0.250000
vt 0.832741 0.250000
vt 0.832741 0.000000
vt 0.802537 0.250000
vt 0.802537 0.000000
vt 0.749680 0.250000
vt 0.749680 0.000000
vt 0.802537 0.000000
vt 0.802537 0.250000
vt 0.714798 0.250000
vt 0.714798 0.000000
vt 0.749680 0.000000
vt 0.749680 0.250000
vt 0.690420 0.250000
vt 0.690420 0.000000
vt 0.671505 0.250000
vt 0.671505 0.000000
vt 0.496612 0.500000
vt 0.625000 0.500000
vt 0.625000 0.750000
vt 0.496612 0.750000
vt 0.496612 0.763942
vt 0.625000 0.763942
vt 0.496612 0.792259
vt 0.625000 0.792259
vt 0.496612 0.822463
vt 0.625000 0.822463
vt 0.496612 0.875320
vt 0.625000 0.875320
vt 0.496612 0.910202
vt 0.625000 0.910202
vt 0.496612 0.934580
vt 0.625000 0.934580
vt 0.496612 0.953495
vt 0.625000 0.953495
vt 0.496612 1.000000
vt 0.496612 0.985513
vt 0.625000 0.985513
vt 0.625000 1.000000
vt 0.496612 0.250000
vt 0.496612 0.000000
vt 0.625000 0.000000
vt 0.625000 0.250000
vt 0.496612 0.264487
vt 0.625000 0.264487
vt 0.496612 0.315420
vt 0.496612 0.296505
vt 0.625000 0.296505
vt 0.625000 0.315420
vt 0.496612 0.339798
vt 0.625000 0.339798
vt 0.496612 0.374680
vt 0.625000 0.374680
vt 0.496612 0.427537
vt 0.625000 0.427537
vt 0.496612 0.457741
vt 0.625000 0.457741
vt 0.496612 0.486058
vt 0.625000 0.486058
vt 0.749680 0.000000
vt 0.749680 0.250000
vt 0.802537 0.000000
vt 0.802537 0.250000
vt 0.671505 0.000000
vt 0.671505 0.250000
vt 0.639487 0.000000
vt 0.639487 0.000000
vt 0.625000 0.000000
vt 0.639487 0.250000
vt 0.625000 0.250000
vt 0.639487 0.250000
vt 0.671505 0.000000
vt 0.671505 0.250000
vn 0.045554 0.998962 0.000000
vn -0.067608 0.997712 -0.000000
vn -0.067608 0.997712 -0.000000
vn 0.045554 0.998962 0.000000
vn -0.502531 0.864559 -0.000000
vn -0.502531 0.864559 -0.000000
vn -0.915898 0.401412 -0.000000
vn -0.915898 0.401412 -0.000000
vn -0.122801 0.992431 -0.000000
vn -0.122801 0.992431 -0.000000
vn -0.060549 0.998165 -0.000000
vn -0.060549 0.998165 -0.000000
vn 0.042812 0.999083 0.000000
vn 0.042812 0.999083 0.000000
vn 0.042812 0.999083 0.000000
vn 0.042812 0.999083 0.000000
vn 0.161911 0.986805 0.000000
vn 0.161911 0.986805 0.000000
vn 0.138716 0.990332 0.000000
vn 0.138716 0.990332 0.000000
vn 0.151886 0.988398 0.000000
vn 0.151886 0.988398 0.000000
vn 0.095545 0.995425 0.000000
vn 0.095545 0.995425 0.000000
vn -0.407639 0.913143 -0.000000
vn -0.407640 0.913143 -0.000000
vn -0.407640 0.913143 -0.000000
vn -0.407639 0.913143 -0.000000
vn -0.018918 0.233544 -0.972162
vn 0.002876 0.266237 -0.963903
vn 0.002876 0.266237 -0.963903
vn -0.021622 0.229459 -0.973078
vn -0.012738 0.205888 -0.978493
vn -0.012191 0.204594 -0.978771
vn 0.000000 0.189323 -0.981915
vn 0.000030 0.189323 -0.981915
vn 0.007754 0.202532 -0.979245
vn 0.007488 0.201750 -0.979409
vn 0.020997 0.255944 -0.966464
vn 0.020474 0.252940 -0.967265
vn 0.027202 0.354039 -0.934835
vn 0.027460 0.351455 -0.935802
vn 0.026407 0.467662 -0.883513
vn 0.026163 0.465865 -0.884469
vn 0.026592 0.700989 -0.712677
vn 0.030776 0.618257 -0.785373
vn 0.030740 0.619037 -0.784760
vn 0.026592 0.700989 -0.712677
vn 0.309364 0.950944 -0.000015
vn 0.309364 0.950944 -0.000015
vn 0.309364 0.950944 -0.000015
vn 0.309364 0.950944 -0.000015
vn 0.030772 0.618268 0.785364
vn 0.026584 0.701011 0.712654
vn 0.026584 0.701011 0.712654
vn 0.030736 0.619049 0.784751
vn 0.027202 0.354039 0.934835
vn 0.026407 0.467662 0.883513
vn 0.026163 0.465865 0.884469
vn 0.027460 0.351455 0.935802
vn 0.020997 0.255944 0.966464
vn 0.020474 0.252940 0.967265
vn 0.007754 0.202532 0.979245
vn 0.007488 0.201750 0.979409
vn -0.000000 0.189323 0.981915
vn 0.000030 0.189323 0.981915
vn -0.012738 0.205888 0.978492
vn -0.012191 0.204594 0.978771
vn -0.018918 0.233544 0.972162
vn -0.021622 0.229459 0.973078
vn 0.002876 0.266237 0.963903
vn 0.002876 0.266237 0.963903
vn 0.988096 0.153840 0.000000
vn 0.988096 0.153840 0.000000
vn 0.988096 0.153840 0.000000
vn 0.988096 0.153840 0.000000
vn 0.000000 -0.000000 -1.000000
vn 0.000000 -0.000000 -1.000000
vn 0.000000 -0.000000 -1.000000
vn 0.000000 -0.000000 -1.000000
vn -0.999904 0.013892 -0.000000
vn -0.999904 0.013892 -0.000000
vn -0.999904 0.013892 -0.000000
vn -0.999904 0.013892 -0.000000
vn -0.000000 0.000000 1.000000
vn -0.000000 0.000000 1.000000
vn -0.000000 0.000000 1.000000
vn -0.000000 0.000000 1.000000
vn 0.984588 0.174889 0.000000
vn 0.984588 0.174889 0.000000
vn 0.984588 0.174889 0.000000
vn 0.984588 0.174889 0.000000
vn 0.002093 0.056629 -0.998393
vn 0.002093 0.056629 -0.998393
vn 0.002093 0.056629 -0.998393
vn 0.002093 0.056629 -0.998393
vn -0.999985 -0.005451 -0.000000
vn -0.999985 -0.005451 -0.000000
vn -0.999985 -0.005451 -0.000000
vn -0.999985 -0.005451 -0.000000
vn 0.002093 0.056629 0.998393
vn 0.002093 0.056629 0.998393
vn 0.002093 0.056629 0.998393
vn 0.002093 0.056629 0.998393
vn -0.152541 0.988297 -0.000000
vn -0.152541 0.988297 -0.000000
vn 0.000000 -0.000000 -1.000000
vn 0.000000 -0.000000 -1.000000
vn 0.000000 -0.000000 -1.000000
vn 0.000000 -0.000000 -1.000000
vn -0.000000 0.000000 1.000000
vn -0.000000 0.000000 1.000000
vn -0.000000 0.000000 1.000000
vn -0.000000 0.000000 1.000000
vn 0.999702 0.024419 0.000000
vn 0.999702 0.024419 0.000000
vn 0.999702 0.024419 0.000000
vn 0.999702 0.024419 0.000000
vn 0.000000 -0.000000 -1.000000
vn 0.000000 -0.000000 -1.000000
vn 0.000000 -0.000000 -1.000000
vn 0.000000 -0.000000 -1.000000
vn -0.981996 0.188902 -0.000000
vn -0.981996 0.188902 -0.000000
vn -0.981996 0.188902 -0.000000
vn -0.981996 0.188902 -0.000000
vn -0.000000 0.000000 1.000000
vn -0.000000 0.000000 1.000000
vn -0.000000 0.000000 1.000000
vn -0.000000 0.000000 1.000000
vn 0.010449 0.122897 -0.992365
vn 0.010449 0.122897 -0.992365
vn 0.010449 0.122897 -0.992365
vn 0.010449 0.122897 -0.992365
vn 0.010449 0.122897 0.992364
vn 0.010449 0.122897 0.992365
vn 0.010449 0.122897 0.992365
vn 0.010449 0.122897 0.992365
vn 0.999651 0.026409 0.000000
vn 0.999651 0.026409 0.000000
vn 0.999651 0.026409 0.000000
vn 0.999651 0.026409 0.000000
vn 0.000169 0.137475 -0.990505
vn 0.000169 0.137475 -0.990505
vn 0.000169 0.137475 -0.990505
vn 0.000169 0.137475 -0.990505
vn -0.978270 0.207333 -0.000000
vn -0.978270 0.207333 -0.000000
vn -0.978270 0.207333 -0.000000
vn -0.978270 0.207333 -0.000000
vn 0.000169 0.137475 0.990505
vn 0.000169 0.137475 0.990505
vn 0.000169 0.137475 0.990505
vn 0.000169 0.137475 0.990505
vn 0.045554 -0.998962 0.000000
vn 0.045554 -0.998962 0.000000
vn -0.067608 -0.997712 -0.000000
vn -0.067608 -0.997712 -0.000000
vn -0.502531 -0.864559 -0.000000
vn -0.915898 -0.401412 -0.000000
vn -0.915898 -0.401412 -0.000000
vn -0.502531 -0.864559 -0.000000
vn -0.122801 -0.992431 -0.000000
vn -0.122801 -0.992431 -0.000000
vn -0.060549 -0.998165 -0.000000
vn -0.060549 -0.998165 -0.000000
vn 0.042812 -0.999083 0.000000
vn 0.042812 -0.999083 0.000000
vn 0.042812 -0.999083 0.000000
vn 0.042812 -0.999083 0.000000
vn 0.161911 -0.986805 0.000000
vn 0.138716 -0.990332 0.000000
vn 0.138716 -0.990332 0.000000
vn 0.161911 -0.986805 0.000000
vn 0.151886 -0.988398 0.000000
vn 0.151886 -0.988398 0.000000
vn 0.095544 -0.995425 0.000000
vn 0.095544 -0.995425 0.000000
vn -0.407640 -0.913143 -0.000000
vn -0.407640 -0.913143 -0.000000
vn -0.407640 -0.913143 -0.000000
vn -0.407640 -0.913143 -0.000000
vn -0.018918 -0.233544 -0.972162
vn -0.021622 -0.229459 -0.973078
vn 0.002876 -0.266237 -0.963903
vn 0.002876 -0.266237 -0.963903
vn -0.012738 -0.205888 -0.978493
vn -0.012191 -0.204594 -0.978771
vn 0.000000 -0.189323 -0.981915
vn 0.000030 -0.189323 -0.981915
vn 0.007754 -0.202532 -0.979245
vn 0.007488 -0.201750 -0.979409
vn 0.020997 -0.255944 -0.966464
vn 0.020474 -0.252940 -0.967265
vn 0.027202 -0.354039 -0.934835
vn 0.027460 -0.351455 -0.935802
vn 0.026407 -0.467662 -0.883513
vn 0.026163 -0.465865 -0.884469
vn 0.026592 -0.700989 -0.712677
vn 0.026592 -0.700989 -0.712677
vn 0.030740 -0.619037 -0.784760
vn 0.030776 -0.618257 -0.785373
vn 0.309419 -0.950926 0.000015
vn 0.309419 -0.950926 0.000015
vn 0.309419 -0.950926 0.000015
vn 0.309419 -0.950926 0.000015
vn 0.030780 -0.618246 0.785381
vn 0.030744 -0.619026 0.784769
vn 0.026600 -0.700966 0.712699
vn 0.026600 -0.700966 0.712699
vn 0.027202 -0.354039 0.934835
vn 0.027460 -0.351455 0.935802
vn 0.026163 -0.465865 0.884469
vn 0.026407 -0.467662 0.883513
vn 0.020997 -0.255944 0.966464
vn 0.020474 -0.252940 0.967265
vn 0.007754 -0.202532 0.979245
vn 0.007488 -0.201750 0.979409
vn -0.000000 -0.189323 0.981915
vn 0.000030 -0.189323 0.981915
vn -0.012738 -0.205888 0.978492
vn -0.012191 -0.204594 0.978771
vn -0.018918 -0.233544 0.972162
vn -0.021622 -0.229459 0.973078
vn 0.002876 -0.266237 0.963903
vn 0.002876 -0.266237 0.963903
vn 0.988096 -0.153840 0.000000
vn 0.988096 -0.153840 0.000000
vn 0.988096 -0.153840 0.000000
vn 0.988096 -0.153840 0.000000
vn 0.000000 -0.000000 -1.000000
vn 0.000000 -0.000000 -1.000000
vn 0.000000 -0.000000 -1.000000
vn 0.000000 -0.000000 -1.000000
vn -0.999904 -0.013892 -0.000000
vn -0.999904 -0.013892 -0.000000
vn -0.999904 -0.013892 -0.000000
vn -0.999904 -0.013892 -0.000000
vn -0.000000 0.000000 1.000000
vn -0.000000 0.000000 1.000000
vn -0.000000 0.000000 1.000000
vn -0.000000 0.000000 1.000000
vn 0.984588 -0.174889 0.000000
vn 0.984588 -0.174889 0.000000
vn 0.984588 -0.174889 0.000000
vn 0.984588 -0.174889 0.000000
vn 0.002093 -0.056629 -0.998393
vn 0.002093 -0.056629 -0.998393
vn 0.002093 -0.056629 -0.998393
vn 0.002093 -0.056629 -0.998393
vn -0.999985 0.005451 -0.000000
vn -0.999985 0.005451 -0.000000
vn -0.999985 0.005451 -0.000000
vn -0.999985 0.005451 -0.000000
vn 0.002093 -0.056629 0.998393
vn 0.002093 -0.056629 0.998393
vn 0.002093 -0.056629 0.998393
vn 0.002093 -0.056629 0.998393
vn -0.152541 -0.988297 -0.000000
vn -0.152541 -0.988297 -0.000000
vn 0.000000 -0.000000 -1.000000
vn 0.000000 -0.000000 -1.000000
vn 0.000000 -0.000000 -1.000000
vn 0.000000 -0.000000 -1.000000
vn 0.000000 -0.000000 1.000000
vn 0.000000 -0.000000 1.000000
vn 0.000000 -0.000000 1.000000
vn 0.000000 -0.000000 1.000000
vn 0.999702 -0.024419 0.000000
vn 0.999702 -0.024419 0.000000
vn 0.999702 -0.024419 0.000000
vn 0.999702 -0.024419 0.000000
vn -0.000000 0.000000 -1.000000
vn -0.000000 0.000000 -1.000000
vn -0.000000 0.000000 -1.000000
vn -0.000000 0.000000 -1.000000
vn -0.981996 -0.188902 -0.000000
vn -0.981996 -0.188902 -0.000000
vn -0.981996 -0.188902 -0.000000
vn -0.981996 -0.188902 -0.000000
vn -0.000000 0.000000 1.000000
vn -0.000000 0.000000 1.000000
vn -0.000000 0.000000 1.000000
vn -0.000000 0.000000 1.000000
vn 0.010449 -0.122897 -0.992365
vn 0.010449 -0.122897 -0.992365
vn 0.010449 -0.122897 -0.992365
vn 0.010449 -0.122897 -0.992365
vn 0.010449 -0.122897 0.992365
vn 0.010449 -0.122897 0.992365
vn 0.010449 -0.122897 0.992365
vn 0.010449 -0.122897 0.992365
vn 0.999651 -0.026409 0.000000
vn 0.999651 -0.026409 0.000000
vn 0.999651 -0.026409 0.000000
vn 0.999651 -0.026409 0.000000
vn 0.000169 -0.137475 -0.990505
vn 0.000169 -0.137475 -0.990505
vn 0.000169 -0.137475 -0.990505
vn 0.000169 -0.137475 -0.990505
vn -0.978270 -0.207333 -0.000000
vn -0.978270 -0.207333 -0.000000
vn -0.978270 -0.207333 -0.000000
vn -0.978270 -0.207333 -0.000000
vn 0.000169 -0.137475 0.990505
vn 0.000169 -0.137475 0.990505
vn 0.000169 -0.137475 0.990505
vn 0.000169 -0.137475 0.990505
s 1
g pCube1
usemtl lambert2SG
f 56/75/1 55/76/2 57/77/3 58/78/4
s 2
f 5/9/5 6/11/6 4/6/7 3/7/8
f 7/13/9 8/15/10 6/11/6 5/9/5
f 9/17/11 10/19/12 8/15/10 7/13/9
s off
f 42/59/13 41/60/14 43/61/15 44/62/16
s 3
f 13/25/17 14/27/18 12/23/19 11/21/20
f 15/29/21 16/31/22 14/27/18 13/25/17
f 17/33/23 18/35/24 16/31/22 15/29/21
s off
f 19/36/25 3/3/26 4/4/27 20/37/28
s 4
f 21/38/29 20/37/30 4/4/31 6/10/32
f 22/39/33 21/38/29 6/10/32 8/14/34
f 23/40/35 22/39/33 8/14/34 10/18/36
f 24/41/37 23/40/35 10/18/36 12/22/38
f 25/42/39 24/41/37 12/22/38 14/26/40
f 26/43/41 25/42/39 14/26/40 16/30/42
f 27/44/43 26/43/41 16/30/42 18/34/44
f 28/46/45 47/66/46 48/67/47 1/5/48
s off
f 29/47/49 28/45/50 1/1/51 2/2/52
s 5
f 46/65/53 29/47/54 2/2/55 45/63/56
f 31/49/57 30/48/58 17/32/59 15/28/60
f 32/50/61 31/49/57 15/28/60 13/24/62
f 33/51/63 32/50/61 13/24/62 11/20/64
f 34/52/65 33/51/63 11/20/64 9/16/66
f 35/53/67 34/52/65 9/16/66 7/12/68
f 36/54/69 35/53/67 7/12/68 5/8/70
f 19/36/71 36/54/69 5/8/70 3/3/72
s off
f 11/21/73 12/23/74 37/56/75 38/55/76
f 12/23/77 10/19/78 39/57/79 37/56/80
f 10/19/81 9/17/82 40/58/83 39/57/84
f 9/17/85 11/21/86 38/55/87 40/58/88
f 38/55/89 37/56/90 41/60/91 42/59/92
f 37/56/93 39/57/94 43/61/95 41/60/96
f 39/57/97 40/58/98 44/62/99 43/61/100
f 40/58/101 38/55/102 42/59/103 44/62/104
s 5
f 30/48/58 46/65/53 45/63/56 17/32/59
s 4
f 48/67/47 47/66/46 27/44/43 18/34/44
s 1
f 57/77/3 55/76/2 59/79/105 60/80/106
s off
f 1/1/107 48/68/108 49/70/109 50/69/110
f 45/64/111 2/2/112 52/72/113 51/71/114
f 2/2/115 1/1/116 50/69/117 52/72/118
f 48/68/119 18/35/120 53/73/121 49/70/122
f 18/35/123 17/33/124 54/74/125 53/73/126
f 17/33/127 45/64/128 51/71/129 54/74/130
f 50/69/131 49/70/132 55/76/133 56/75/134
f 51/71/135 52/72/136 58/78/137 57/77/138
f 52/72/139 50/69/140 56/75/141 58/78/142
f 49/70/143 53/73/144 59/79/145 55/76/146
f 53/73/147 54/74/148 60/80/149 59/79/150
f 54/74/151 51/71/152 57/77/153 60/80/154
s 6
f 61/81/155 64/84/156 63/83/157 62/82/158
s 7
f 65/85/159 68/88/160 67/87/161 66/86/162
f 69/89/163 65/85/159 66/86/162 70/90/164
f 71/91/165 69/89/163 70/90/164 72/92/166
s off
f 73/93/167 76/96/168 75/95/169 74/94/170
s 8
f 77/97/171 80/100/172 79/99/173 78/98/174
f 81/101/175 77/97/171 78/98/174 82/102/176
f 83/103/177 81/101/175 82/102/176 84/104/178
s off
f 19/105/179 20/108/180 67/107/181 68/106/182
s 9
f 21/109/183 66/110/184 67/107/185 20/108/186
f 22/111/187 70/112/188 66/110/184 21/109/183
f 23/113/189 72/114/190 70/112/188 22/111/187
f 24/115/191 79/116/192 72/114/190 23/113/189
f 25/117/193 78/118/194 79/116/192 24/115/191
f 26/119/195 82/120/196 78/118/194 25/117/193
f 27/121/197 84/122/198 82/120/196 26/119/195
f 28/123/199 86/126/200 85/125/201 47/124/202
s off
f 29/127/203 87/130/204 86/129/205 28/128/206
s 10
f 46/131/207 88/132/208 87/130/209 29/127/210
f 31/133/211 81/136/212 83/135/213 30/134/214
f 32/137/215 77/138/216 81/136/212 31/133/211
f 33/139/217 80/140/218 77/138/216 32/137/215
f 34/141/219 71/142/220 80/140/218 33/139/217
f 35/143/221 69/144/222 71/142/220 34/141/219
f 36/145/223 65/146/224 69/144/222 35/143/221
f 19/105/225 68/106/226 65/146/224 36/145/223
s off
f 80/100/227 90/148/228 89/147/229 79/99/230
f 79/99/231 89/147/232 91/149/233 72/92/234
f 72/92/235 91/149/236 92/150/237 71/91/238
f 71/91/239 92/150/240 90/148/241 80/100/242
f 90/148/243 73/93/244 74/94/245 89/147/246
f 89/147/247 74/94/248 75/95/249 91/149/250
f 91/149/251 75/95/252 76/96/253 92/150/254
f 92/150/255 76/96/256 73/93/257 90/148/258
s 10
f 30/134/214 83/135/213 88/132/208 46/131/207
s 9
f 85/125/201 84/122/198 27/121/197 47/124/202
s 6
f 63/83/157 94/152/259 93/151/260 62/82/158
s off
f 86/129/261 96/155/262 95/154/263 85/153/264
f 88/156/265 98/158/266 97/157/267 87/130/268
f 87/130/269 97/157/270 96/155/271 86/129/272
f 85/153/273 95/154/274 99/159/275 84/104/276
f 84/104/277 99/159/278 100/160/279 83/103/280
f 83/103/281 100/160/282 98/158/283 88/156/284
f 96/155/285 61/81/286 62/82/287 95/154/288
f 98/158/289 63/83/290 64/84/291 97/157/292
f 97/157/293 64/84/294 61/81/295 96/155/296
f 95/154/297 62/82/298 93/151/299 99/159/300
f 99/159/301 93/151/302 94/152/303 100/160/304
f 100/160/305 94/152/306 63/83/307 98/158/308
