# This file uses centimeters as units for non-parametric coordinates.

mtllib BaseAltitud.mtl
g default
v -0.748526 -4.222988 0.213889
v 0.251474 -4.222988 0.213889
v -0.748526 7.813541 0.213889
v 0.251474 7.813541 0.213889
v -0.544166 7.813541 -0.132434
v 0.047113 7.813541 -0.132434
v -0.544166 -4.222988 -0.132434
v 0.047113 -4.222988 -0.132434
v -0.748526 -4.222988 0.283082
v 0.251474 -4.222988 0.283082
v 0.251474 7.813541 0.283082
v -0.748526 7.813541 0.283082
v -0.630936 -4.077645 0.326104
v 0.133883 -4.077645 0.326104
v 0.133883 7.668197 0.326104
v -0.630936 7.668197 0.326104
v -0.561641 -3.946251 0.254926
v 0.064588 -3.946251 0.254926
v 0.064588 7.536803 0.254926
v -0.561641 7.536803 0.254926
v -0.233403 7.813541 -0.175876
v -0.233403 -4.222988 -0.175876
v -0.234211 -4.222988 0.213889
v -0.234211 -4.222988 0.283082
v -0.233746 -4.077645 0.326104
v -0.233472 -3.946251 0.254926
v -0.233472 7.536803 0.254926
v -0.233746 7.668197 0.326104
v -0.234211 7.813541 0.283082
v -0.234211 7.813541 0.213889
vt 0.375000 0.000000
vt 0.625000 0.000000
vt 0.375000 0.250000
vt 0.625000 0.250000
vt 0.375000 0.500000
vt 0.625000 0.500000
vt 0.375000 0.750000
vt 0.625000 0.750000
vt 0.375000 1.000000
vt 0.625000 1.000000
vt 0.875000 0.000000
vt 0.875000 0.250000
vt 0.125000 0.000000
vt 0.125000 0.250000
vt 0.375000 0.000000
vt 0.625000 0.000000
vt 0.625000 0.250000
vt 0.375000 0.250000
vt 0.375000 0.000000
vt 0.625000 0.000000
vt 0.625000 0.250000
vt 0.375000 0.250000
vt 0.375000 0.000000
vt 0.625000 0.000000
vt 0.625000 0.250000
vt 0.375000 0.250000
vt 0.499506 0.500000
vt 0.499506 0.750000
vt 0.499506 0.000000
vt 0.499506 1.000000
vt 0.499506 0.000000
vt 0.499506 0.000000
vt 0.499506 0.000000
vt 0.499506 0.250000
vt 0.499506 0.250000
vt 0.499506 0.250000
vt 0.499506 0.250000
vt 0.191518 0.484467
vt 0.213882 0.484467
vt 0.213882 0.916751
vt 0.191518 0.916751
vt 0.234194 0.484467
vt 0.234194 0.916751
vn -0.000000 0.008434 0.999964
vn 0.000000 0.006798 0.999977
vn 0.000000 -0.006798 0.999977
vn -0.000000 -0.008434 0.999964
vn 0.000000 1.000000 -0.000001
vn 0.000000 1.000000 -0.000001
vn 0.000000 1.000000 -0.000001
vn 0.000000 1.000000 -0.000001
vn -0.138448 0.000000 -0.990370
vn 0.000000 0.000000 -1.000000
vn 0.000000 0.000000 -1.000000
vn -0.138448 0.000000 -0.990370
vn 0.000000 -1.000000 -0.000001
vn 0.000000 -1.000000 -0.000001
vn 0.000000 -1.000000 -0.000001
vn 0.000000 -1.000000 -0.000001
vn 0.897342 0.000000 -0.441335
vn 0.861236 0.000000 -0.508205
vn 0.861236 0.000000 -0.508205
vn 0.897342 0.000000 -0.441335
vn -0.861236 0.000000 -0.508205
vn -0.897342 0.000000 -0.441335
vn -0.897342 0.000000 -0.441335
vn -0.861236 0.000000 -0.508205
vn 0.000000 -1.000000 0.000000
vn 0.000000 -1.000000 0.000000
vn 1.000000 0.000000 0.000000
vn 1.000000 0.000000 0.000000
vn 0.000000 1.000000 0.000000
vn 0.000000 1.000000 0.000000
vn -1.000000 0.000000 0.000000
vn -1.000000 0.000000 0.000000
vn -0.336869 -0.006150 0.941531
vn -0.000000 -0.283830 0.958875
vn 0.000000 -0.283830 0.958875
vn -0.323527 -0.018280 0.946042
vn 0.337291 -0.005764 0.941383
vn 0.337291 0.005764 0.941383
vn 0.324744 0.017177 0.945646
vn 0.324744 -0.017177 0.945646
vn -0.000000 0.283828 0.958875
vn -0.336869 0.006150 0.941531
vn -0.323526 0.018280 0.946043
vn 0.000000 0.283828 0.958875
vn -0.000000 0.476314 0.879275
vn -0.000000 0.476315 0.879275
vn -0.716518 0.000000 0.697568
vn -0.716518 0.000000 0.697568
vn -0.716518 0.000000 0.697568
vn -0.716518 0.000000 0.697568
vn -0.000000 -0.476315 0.879275
vn -0.000000 -0.476315 0.879275
vn 0.716518 0.000000 0.697568
vn 0.716518 0.000000 0.697568
vn 0.716518 0.000000 0.697568
vn 0.716518 0.000000 0.697568
vn 0.153043 0.000000 -0.988220
vn 0.153043 0.000000 -0.988220
vn 0.000000 -1.000000 0.000000
vn 0.000000 -1.000000 0.000000
vn 0.000000 -1.000000 0.000000
vn 0.000000 0.476316 0.879274
vn 0.000000 0.008521 0.999964
vn 0.000000 -0.008521 0.999964
vn 0.000000 -0.476314 0.879275
vn 0.000000 1.000000 0.000000
vn 0.000000 1.000000 0.000000
vn 0.000000 1.000000 0.000000
s 1
g pCube1
usemtl lambert5SG
f 17/38/1 26/39/2 27/40/3 20/41/4
s 2
f 3/3/5 30/37/6 21/27/7 5/5/8
s 3
f 5/5/9 21/27/10 22/28/11 7/7/12
s 4
f 7/7/13 22/28/14 23/30/15 1/9/16
s 5
f 2/2/17 8/11/18 6/12/19 4/4/20
s 6
f 7/13/21 1/1/22 3/3/23 5/14/24
s 4
f 1/1/16 23/29/15 24/31/25 9/15/26
s 5
f 2/2/17 4/4/20 11/17/27 10/16/28
s 2
f 30/37/6 3/3/5 12/18/29 29/36/30
s 6
f 3/3/23 1/1/22 9/15/31 12/18/32
s 7
f 9/15/33 24/31/34 25/32/35 13/19/36
f 10/16/37 11/17/38 15/21/39 14/20/40
f 29/36/41 12/18/42 16/22/43 28/35/44
f 12/18/42 9/15/33 13/19/36 16/22/43
s 1
f 13/19/45 25/32/46 26/33/2 17/23/1
s off
f 14/20/47 15/21/48 19/25/49 18/24/50
s 1
f 28/35/51 16/22/52 20/26/4 27/34/3
s off
f 16/22/53 13/19/54 17/23/55 20/26/56
s 3
f 21/27/10 6/6/57 8/8/58 22/28/11
s 4
f 23/30/15 22/28/14 8/8/59 2/10/60
f 24/31/25 23/29/15 2/2/60 10/16/61
s 7
f 25/32/35 24/31/34 10/16/37 14/20/40
s 1
f 26/33/2 25/32/46 14/20/62 18/24/63
f 27/40/3 26/39/2 18/42/63 19/43/64
f 15/21/65 28/35/51 27/34/3 19/25/64
s 7
f 11/17/38 29/36/41 28/35/44 15/21/39
s 2
f 4/4/66 30/37/6 29/36/30 11/17/67
f 21/27/7 30/37/6 4/4/66 6/6/68
